<svg class="main-svg" xmlns="http://www.w3.org/2000/svg" xmlns:xlink="http://www.w3.org/1999/xlink" width="650" height="550" style="" viewBox="0 0 650 550"><rect x="0" y="0" width="650" height="550" style="fill: rgb(13, 17, 23); fill-opacity: 1;"/><defs id="defs-c84268"><g class="clips"><clipPath id="clipc84268polar-for-traces"><path d="M215,0A215,215 0,1,0 -215,-2.6329906181668095e-14A215,215 0,1,0 215,5.265981236333619e-14Z" transform="translate(215,215)"/></clipPath></g><g class="gradients"/><g class="patterns"/></defs><g class="bglayer"/><g class="layer-below"><g class="imagelayer"/><g class="shapelayer"/></g><g class="cartesianlayer"/><g class="polarlayer"><g class="polar"><g class="polarsublayer draglayer"/><g class="polarsublayer plotbg"><path d="M215,0A215,215 0,1,0 -215,-2.6329906181668095e-14A215,215 0,1,0 215,5.265981236333619e-14Z" transform="translate(295,295)" style="fill: rgb(22, 27, 34); fill-opacity: 1;"/></g><g class="polarsublayer backplot"><g class="maplayer"/></g><g class="polarsublayer angular-grid" style="fill: none;"><path class="angularaxisgrid" d="M295,295L510,295" style="stroke: rgb(48, 54, 61); stroke-opacity: 1; stroke-width: 1px;"/><path class="angularaxisgrid" d="M295,295L295,80" style="stroke: rgb(48, 54, 61); stroke-opacity: 1; stroke-width: 1px;"/><path class="angularaxisgrid" d="M295,295L80,295" style="stroke: rgb(48, 54, 61); stroke-opacity: 1; stroke-width: 1px;"/><path class="angularaxisgrid" d="M295,295L294.99999999999994,510" style="stroke: rgb(48, 54, 61); stroke-opacity: 1; stroke-width: 1px;"/></g><g class="polarsublayer radial-grid" transform="translate(295,295)" style="fill: none;"><path class="xgrid" d="M39.09,0A39.09,39.09 0,1,0 -39.09,-4.7871443378670045e-15A39.09,39.09 0,1,0 39.09,9.574288675734009e-15Z" style="stroke: rgb(48, 54, 61); stroke-opacity: 1; stroke-width: 1px;"/><path class="xgrid" d="M78.18,0A78.18,78.18 0,1,0 -78.18,-9.574288675734009e-15A78.18,78.18 0,1,0 78.18,1.9148577351468018e-14Z" style="stroke: rgb(48, 54, 61); stroke-opacity: 1; stroke-width: 1px;"/><path class="xgrid" d="M117.27,0A117.27,117.27 0,1,0 -117.27,-1.4361433013601012e-14A117.27,117.27 0,1,0 117.27,2.8722866027202024e-14Z" style="stroke: rgb(48, 54, 61); stroke-opacity: 1; stroke-width: 1px;"/><path class="xgrid" d="M156.36,0A156.36,156.36 0,1,0 -156.36,-1.9148577351468018e-14A156.36,156.36 0,1,0 156.36,3.8297154702936036e-14Z" style="stroke: rgb(48, 54, 61); stroke-opacity: 1; stroke-width: 1px;"/><path class="xgrid" d="M195.45,0A195.45,195.45 0,1,0 -195.45,-2.3935721689335018e-14A195.45,195.45 0,1,0 195.45,4.7871443378670035e-14Z" style="stroke: rgb(48, 54, 61); stroke-opacity: 1; stroke-width: 1px;"/></g><g class="polarsublayer frontplot" transform="translate(80,80)"><g class="barlayer"/><g class="scatterlayer"><g class="trace scatter trace3815c1" style="stroke-miterlimit: 2; opacity: 1;"><g class="fills" clip-path="url(#clipc84268polar-for-traces)"><g><path class="js-fill" d="M347.24,215L215,89.95L100.15,215L215,412.88L347.24,215Z" style="fill: rgb(0, 229, 204); fill-opacity: 0.1; stroke-width: 0;"/></g></g><g class="errorbars"/><g class="lines"><path class="js-line" d="M347.24,215L215,89.95L100.15,215L215,412.88L347.24,215" clip-path="url(#clipc84268polar-for-traces)" style="vector-effect: none; fill: none; stroke: rgb(0, 229, 204); stroke-opacity: 1; stroke-width: 2px; opacity: 1;"/></g><g class="points"><path class="point" transform="translate(347.24,215)" d="M3,0A3,3 0 1,1 0,-3A3,3 0 0,1 3,0Z" style="opacity: 1; stroke-width: 0px; fill: rgb(0, 229, 204); fill-opacity: 1;"/><path class="point" transform="translate(215,89.95)" d="M3,0A3,3 0 1,1 0,-3A3,3 0 0,1 3,0Z" style="opacity: 1; stroke-width: 0px; fill: rgb(0, 229, 204); fill-opacity: 1;"/><path class="point" transform="translate(100.15,215)" d="M3,0A3,3 0 1,1 0,-3A3,3 0 0,1 3,0Z" style="opacity: 1; stroke-width: 0px; fill: rgb(0, 229, 204); fill-opacity: 1;"/><path class="point" transform="translate(215,412.88)" d="M3,0A3,3 0 1,1 0,-3A3,3 0 0,1 3,0Z" style="opacity: 1; stroke-width: 0px; fill: rgb(0, 229, 204); fill-opacity: 1;"/><path class="point" transform="translate(347.24,215)" d="M3,0A3,3 0 1,1 0,-3A3,3 0 0,1 3,0Z" style="opacity: 1; stroke-width: 0px; fill: rgb(0, 229, 204); fill-opacity: 1;"/></g><g class="text"/></g><g class="trace scatter tracef015dd" style="stroke-miterlimit: 2; opacity: 1;"><g class="fills" clip-path="url(#clipc84268polar-for-traces)"/><g class="errorbars"/><g class="lines"><path class="js-line" d="M282.2,215L215,105.04L75.41,215L215,393.68L282.2,215" clip-path="url(#clipc84268polar-for-traces)" style="vector-effect: none; fill: none; stroke: rgb(155, 127, 212); stroke-opacity: 1; stroke-width: 2px; opacity: 1;"/></g><g class="points"><path class="point" transform="translate(282.2,215)" d="M3,0A3,3 0 1,1 0,-3A3,3 0 0,1 3,0Z" style="opacity: 1; stroke-width: 0px; fill: rgb(155, 127, 212); fill-opacity: 1;"/><path class="point" transform="translate(215,105.04)" d="M3,0A3,3 0 1,1 0,-3A3,3 0 0,1 3,0Z" style="opacity: 1; stroke-width: 0px; fill: rgb(155, 127, 212); fill-opacity: 1;"/><path class="point" transform="translate(75.41,215)" d="M3,0A3,3 0 1,1 0,-3A3,3 0 0,1 3,0Z" style="opacity: 1; stroke-width: 0px; fill: rgb(155, 127, 212); fill-opacity: 1;"/><path class="point" transform="translate(215,393.68)" d="M3,0A3,3 0 1,1 0,-3A3,3 0 0,1 3,0Z" style="opacity: 1; stroke-width: 0px; fill: rgb(155, 127, 212); fill-opacity: 1;"/><path class="point" transform="translate(282.2,215)" d="M3,0A3,3 0 1,1 0,-3A3,3 0 0,1 3,0Z" style="opacity: 1; stroke-width: 0px; fill: rgb(155, 127, 212); fill-opacity: 1;"/></g><g class="text"/></g><g class="trace scatter trace90cf73" style="stroke-miterlimit: 2; opacity: 1;"><g class="fills" clip-path="url(#clipc84268polar-for-traces)"/><g class="errorbars"/><g class="lines"><path class="js-line" d="M297.68,215L215,115.28L69.86,215L215,382.82L297.68,215" clip-path="url(#clipc84268polar-for-traces)" style="vector-effect: none; fill: none; stroke: rgb(244, 112, 103); stroke-opacity: 1; stroke-width: 2px; opacity: 1;"/></g><g class="points"><path class="point" transform="translate(297.68,215)" d="M3,0A3,3 0 1,1 0,-3A3,3 0 0,1 3,0Z" style="opacity: 1; stroke-width: 0px; fill: rgb(244, 112, 103); fill-opacity: 1;"/><path class="point" transform="translate(215,115.28)" d="M3,0A3,3 0 1,1 0,-3A3,3 0 0,1 3,0Z" style="opacity: 1; stroke-width: 0px; fill: rgb(244, 112, 103); fill-opacity: 1;"/><path class="point" transform="translate(69.86,215)" d="M3,0A3,3 0 1,1 0,-3A3,3 0 0,1 3,0Z" style="opacity: 1; stroke-width: 0px; fill: rgb(244, 112, 103); fill-opacity: 1;"/><path class="point" transform="translate(215,382.82)" d="M3,0A3,3 0 1,1 0,-3A3,3 0 0,1 3,0Z" style="opacity: 1; stroke-width: 0px; fill: rgb(244, 112, 103); fill-opacity: 1;"/><path class="point" transform="translate(297.68,215)" d="M3,0A3,3 0 1,1 0,-3A3,3 0 0,1 3,0Z" style="opacity: 1; stroke-width: 0px; fill: rgb(244, 112, 103); fill-opacity: 1;"/></g><g class="text"/></g><g class="trace scatter trace26bc03" style="stroke-miterlimit: 2; opacity: 1;"><g class="fills" clip-path="url(#clipc84268polar-for-traces)"/><g class="errorbars"/><g class="lines"><path class="js-line" d="M259.37,215L215,139.52L91.08,215L215,397.16L259.37,215" clip-path="url(#clipc84268polar-for-traces)" style="vector-effect: none; fill: none; stroke: rgb(139, 148, 158); stroke-opacity: 1; stroke-width: 2px; opacity: 1;"/></g><g class="points"><path class="point" transform="translate(259.37,215)" d="M3,0A3,3 0 1,1 0,-3A3,3 0 0,1 3,0Z" style="opacity: 1; stroke-width: 0px; fill: rgb(139, 148, 158); fill-opacity: 1;"/><path class="point" transform="translate(215,139.52)" d="M3,0A3,3 0 1,1 0,-3A3,3 0 0,1 3,0Z" style="opacity: 1; stroke-width: 0px; fill: rgb(139, 148, 158); fill-opacity: 1;"/><path class="point" transform="translate(91.08,215)" d="M3,0A3,3 0 1,1 0,-3A3,3 0 0,1 3,0Z" style="opacity: 1; stroke-width: 0px; fill: rgb(139, 148, 158); fill-opacity: 1;"/><path class="point" transform="translate(215,397.16)" d="M3,0A3,3 0 1,1 0,-3A3,3 0 0,1 3,0Z" style="opacity: 1; stroke-width: 0px; fill: rgb(139, 148, 158); fill-opacity: 1;"/><path class="point" transform="translate(259.37,215)" d="M3,0A3,3 0 1,1 0,-3A3,3 0 0,1 3,0Z" style="opacity: 1; stroke-width: 0px; fill: rgb(139, 148, 158); fill-opacity: 1;"/></g><g class="text"/></g></g></g><g class="polarsublayer angular-line"><path d="M215,0A215,215 0,1,0 -215,-2.6329906181668095e-14A215,215 0,1,0 215,5.265981236333619e-14Z" transform="translate(295,295)" stroke-width="1" style="fill: none; stroke: rgb(255, 255, 255); stroke-opacity: 1;"/></g><g class="polarsublayer radial-line"><line x1="0" y1="0" x2="215" y2="0" transform="translate(295,295)" stroke-width="1" style="fill: none; stroke: rgb(255, 255, 255); stroke-opacity: 1;"/></g><g class="polarsublayer angular-axis"><g class="angularaxistick"><text text-anchor="start" x="2.9000000000000004" y="4.199999999999999" transform="translate(510,295)" style="font-family: Inter, sans-serif; font-size: 12px; fill: rgb(230, 237, 243); fill-opacity: 1; white-space: pre;">Multi-Hop</text></g><g class="angularaxistick"><text text-anchor="middle" x="1.7757378587636624e-16" y="-5.300000000000001" transform="translate(295,80)" style="font-family: Inter, sans-serif; font-size: 12px; fill: rgb(230, 237, 243); fill-opacity: 1; white-space: pre;">Temporal</text></g><g class="angularaxistick"><text text-anchor="end" x="-2.9000000000000004" y="4.199999999999998" transform="translate(80,295)" style="font-family: Inter, sans-serif; font-size: 12px; fill: rgb(230, 237, 243); fill-opacity: 1; white-space: pre;">Single-Hop</text></g><g class="angularaxistick"><text text-anchor="middle" x="-5.327213576290987e-16" y="14.9" transform="translate(294.99999999999994,510)" style="font-family: Inter, sans-serif; font-size: 12px; fill: rgb(230, 237, 243); fill-opacity: 1; white-space: pre;">Open-Domain</text></g></g><g class="polarsublayer radial-axis" transform="translate(295,295)"><g class="xtick"><text text-anchor="middle" x="0" y="14.9" transform="" style="font-family: Inter, sans-serif; font-size: 12px; fill: rgb(139, 148, 158); fill-opacity: 1; white-space: pre;">30</text></g><g class="xtick"><text text-anchor="middle" x="0" y="14.9" transform="translate(39.09,0)" style="font-family: Inter, sans-serif; font-size: 12px; fill: rgb(139, 148, 158); fill-opacity: 1; white-space: pre;">40</text></g><g class="xtick"><text text-anchor="middle" x="0" y="14.9" transform="translate(78.18,0)" style="font-family: Inter, sans-serif; font-size: 12px; fill: rgb(139, 148, 158); fill-opacity: 1; white-space: pre;">50</text></g><g class="xtick"><text text-anchor="middle" x="0" y="14.9" transform="translate(117.27,0)" style="font-family: Inter, sans-serif; font-size: 12px; fill: rgb(139, 148, 158); fill-opacity: 1; white-space: pre;">60</text></g><g class="xtick"><text text-anchor="middle" x="0" y="14.9" transform="translate(156.36,0)" style="font-family: Inter, sans-serif; font-size: 12px; fill: rgb(139, 148, 158); fill-opacity: 1; white-space: pre;">70</text></g><g class="xtick"><text text-anchor="middle" x="0" y="14.9" transform="translate(195.45,0)" style="font-family: Inter, sans-serif; font-size: 12px; fill: rgb(139, 148, 158); fill-opacity: 1; white-space: pre;">80</text></g></g></g></g><g class="smithlayer"/><g class="ternarylayer"/><g class="geolayer"/><g class="funnelarealayer"/><g class="pielayer"/><g class="iciclelayer"/><g class="treemaplayer"/><g class="sunburstlayer"/><g class="glimages"/><defs id="topdefs-c84268"><g class="clips"/><clipPath id="legendc84268"><rect width="119" height="86" x="0" y="0"/></clipPath></defs><g class="layer-above"><g class="imagelayer"/><g class="shapelayer"/></g><g class="infolayer"><g class="legend" pointer-events="all" transform="translate(518.6,80)"><rect class="bg" shape-rendering="crispEdges" style="stroke: rgb(68, 68, 68); stroke-opacity: 1; fill: rgb(0, 0, 0); fill-opacity: 0; stroke-width: 0px;" width="119" height="86" x="0" y="0"/><g class="scrollbox" transform="" clip-path="url(#legendc84268)"><g class="groups"><g class="traces" transform="translate(0,14.5)" style="opacity: 1;"><text class="legendtext" text-anchor="start" x="40" y="4.680000000000001" style="font-family: Inter, sans-serif; font-size: 12px; fill: rgb(139, 148, 158); fill-opacity: 1; white-space: pre;">synapt v0.6</text><g class="layers" style="opacity: 1;"><g class="legendfill"><path class="js-fill" d="M5,0h30v6h-30z" style="stroke-width: 0; fill: rgb(0, 229, 204); fill-opacity: 0.1;"/></g><g class="legendlines"><path class="js-line" d="M5,0h30" style="fill: none; stroke: rgb(0, 229, 204); stroke-opacity: 1; stroke-width: 2px;"/></g><g class="legendsymbols"><g class="legendpoints"><path class="scatterpts" transform="translate(20,0)" d="M3,0A3,3 0 1,1 0,-3A3,3 0 0,1 3,0Z" style="opacity: 1; stroke-width: 0px; fill: rgb(0, 229, 204); fill-opacity: 1;"/></g></g></g><rect class="legendtoggle" x="0" y="-9.5" width="113.703125" height="19" style="fill: rgb(0, 0, 0); fill-opacity: 0;"/></g><g class="traces" transform="translate(0,33.5)" style="opacity: 1;"><text class="legendtext" text-anchor="start" x="40" y="4.680000000000001" style="font-family: Inter, sans-serif; font-size: 12px; fill: rgb(139, 148, 158); fill-opacity: 1; white-space: pre;">Mem0+Graph</text><g class="layers" style="opacity: 1;"><g class="legendfill"/><g class="legendlines"><path class="js-line" d="M5,0h30" style="fill: none; stroke: rgb(155, 127, 212); stroke-opacity: 1; stroke-width: 2px;"/></g><g class="legendsymbols"><g class="legendpoints"><path class="scatterpts" transform="translate(20,0)" d="M3,0A3,3 0 1,1 0,-3A3,3 0 0,1 3,0Z" style="opacity: 1; stroke-width: 0px; fill: rgb(155, 127, 212); fill-opacity: 1;"/></g></g></g><rect class="legendtoggle" x="0" y="-9.5" width="113.703125" height="19" style="fill: rgb(0, 0, 0); fill-opacity: 0;"/></g><g class="traces" transform="translate(0,52.5)" style="opacity: 1;"><text class="legendtext" text-anchor="start" x="40" y="4.680000000000001" style="font-family: Inter, sans-serif; font-size: 12px; fill: rgb(139, 148, 158); fill-opacity: 1; white-space: pre;">Mem0</text><g class="layers" style="opacity: 1;"><g class="legendfill"/><g class="legendlines"><path class="js-line" d="M5,0h30" style="fill: none; stroke: rgb(244, 112, 103); stroke-opacity: 1; stroke-width: 2px;"/></g><g class="legendsymbols"><g class="legendpoints"><path class="scatterpts" transform="translate(20,0)" d="M3,0A3,3 0 1,1 0,-3A3,3 0 0,1 3,0Z" style="opacity: 1; stroke-width: 0px; fill: rgb(244, 112, 103); fill-opacity: 1;"/></g></g></g><rect class="legendtoggle" x="0" y="-9.5" width="113.703125" height="19" style="fill: rgb(0, 0, 0); fill-opacity: 0;"/></g><g class="traces" transform="translate(0,71.5)" style="opacity: 1;"><text class="legendtext" text-anchor="start" x="40" y="4.680000000000001" style="font-family: Inter, sans-serif; font-size: 12px; fill: rgb(139, 148, 158); fill-opacity: 1; white-space: pre;">Zep</text><g class="layers" style="opacity: 1;"><g class="legendfill"/><g class="legendlines"><path class="js-line" d="M5,0h30" style="fill: none; stroke: rgb(139, 148, 158); stroke-opacity: 1; stroke-width: 2px;"/></g><g class="legendsymbols"><g class="legendpoints"><path class="scatterpts" transform="translate(20,0)" d="M3,0A3,3 0 1,1 0,-3A3,3 0 0,1 3,0Z" style="opacity: 1; stroke-width: 0px; fill: rgb(139, 148, 158); fill-opacity: 1;"/></g></g></g><rect class="legendtoggle" x="0" y="-9.5" width="113.703125" height="19" style="fill: rgb(0, 0, 0); fill-opacity: 0;"/></g></g></g><rect class="scrollbar" rx="20" ry="3" width="0" height="0" style="fill: rgb(128, 139, 164); fill-opacity: 1;" x="0" y="0"/></g><g class="g-gtitle"><text class="gtitle" x="325" y="40" text-anchor="middle" dy="0em" style="opacity: 1; font-family: Inter, sans-serif; font-size: 20px; fill: rgb(230, 237, 243); fill-opacity: 1; white-space: pre;">LOCOMO Benchmark by Category</text></g><g class="g-polartitle"/></g></svg>